<svg xmlns="http://www.w3.org/2000/svg" viewBox="0 0 1200 800" role="img" aria-label="Digital marketing illustration">
  <defs>
    <linearGradient id="bg" x1="0" y1="0" x2="1" y2="1">
      <stop offset="0%" stop-color="#eff6ff"/>
      <stop offset="100%" stop-color="#e0e7ff"/>
    </linearGradient>
    <linearGradient id="accent" x1="0" y1="0" x2="1" y2="1">
      <stop offset="0%" stop-color="#2563eb"/>
      <stop offset="100%" stop-color="#7c3aed"/>
    </linearGradient>
  </defs>
  <rect width="1200" height="800" rx="48" fill="url(#bg)"/>
  <circle cx="260" cy="180" r="90" fill="#bfdbfe" opacity="0.9"/>
  <circle cx="980" cy="140" r="120" fill="#c4b5fd" opacity="0.55"/>
  <circle cx="940" cy="620" r="150" fill="#93c5fd" opacity="0.35"/>
  <rect x="120" y="180" width="960" height="420" rx="36" fill="#ffffff" opacity="0.8"/>
  <rect x="180" y="250" width="260" height="210" rx="24" fill="#dbeafe"/>
  <rect x="480" y="250" width="580" height="90" rx="22" fill="#eff6ff"/>
  <rect x="480" y="365" width="580" height="75" rx="20" fill="#eff6ff"/>
  <rect x="480" y="465" width="360" height="75" rx="20" fill="#eff6ff"/>
  <path d="M210 395 L270 330 L315 360 L360 290" fill="none" stroke="url(#accent)" stroke-width="16" stroke-linecap="round" stroke-linejoin="round"/>
  <circle cx="210" cy="395" r="12" fill="#2563eb"/>
  <circle cx="270" cy="330" r="12" fill="#2563eb"/>
  <circle cx="315" cy="360" r="12" fill="#7c3aed"/>
  <circle cx="360" cy="290" r="12" fill="#2563eb"/>
  <rect x="520" y="280" width="220" height="22" rx="11" fill="#bfdbfe"/>
  <rect x="520" y="320" width="310" height="16" rx="8" fill="#dbeafe"/>
  <rect x="520" y="340" width="270" height="16" rx="8" fill="#dbeafe"/>
  <rect x="520" y="390" width="360" height="18" rx="9" fill="#c4b5fd"/>
  <rect x="520" y="420" width="220" height="18" rx="9" fill="#bfdbfe"/>
  <rect x="520" y="490" width="280" height="18" rx="9" fill="#2563eb"/>
  <rect x="520" y="520" width="180" height="18" rx="9" fill="#7c3aed"/>
  <circle cx="1000" cy="290" r="66" fill="#dbeafe"/>
  <path d="M980 290h40M1000 270v40" stroke="#2563eb" stroke-width="14" stroke-linecap="round"/>
  <circle cx="930" cy="420" r="58" fill="#ede9fe"/>
  <path d="M930 390l35 20-35 20-35-20z" fill="#7c3aed"/>
  <circle cx="1010" cy="500" r="54" fill="#dbeafe"/>
  <path d="M990 500h40" stroke="#2563eb" stroke-width="12" stroke-linecap="round"/>
  <path d="M1010 480v40" stroke="#2563eb" stroke-width="12" stroke-linecap="round"/>
  <text x="600" y="610" text-anchor="middle" font-family="Arial, Helvetica, sans-serif" font-size="34" font-weight="700" fill="#1e3a8a">Digital Marketing Strategy</text>
</svg>